<?xml version="1.0" standalone="no"?>
<!DOCTYPE svg PUBLIC "-//W3C//DTD SVG 20010904//EN"
 "http://www.w3.org/TR/2001/REC-SVG-20010904/DTD/svg10.dtd">
<svg version="1.0" xmlns="http://www.w3.org/2000/svg"
 width="286.000000pt" height="300.000000pt" viewBox="0 0 286.000000 300.000000"
 preserveAspectRatio="xMidYMid meet">

<g transform="translate(0.000000,300.000000) scale(0.100000,-0.100000)"
fill="#000000" stroke="none">
<path d="M2240 2234 c-146 -23 -234 -63 -323 -145 -34 -31 -78 -83 -97 -115
-19 -33 -37 -61 -40 -64 -3 -3 -6 -16 -8 -30 -1 -14 -6 -26 -11 -28 -5 -2 -7
-12 -4 -22 3 -11 0 -20 -6 -20 -5 0 -8 -7 -5 -15 4 -8 3 -23 -1 -32 -10 -22
-13 -143 -4 -143 4 0 9 -22 13 -49 16 -120 134 -287 251 -355 28 -16 52 -32
55 -35 3 -3 12 -7 20 -7 23 -3 114 -28 120 -34 9 -9 180 -5 180 4 0 4 11 6 25
4 14 -3 25 -2 25 3 0 7 51 23 75 24 6 0 12 3 15 6 3 3 28 19 55 34 70 41 165
140 200 210 16 33 33 61 37 63 4 2 4 10 1 18 -3 8 -1 14 3 14 5 0 10 21 12 47
1 26 6 50 10 53 9 6 10 140 1 140 -4 0 -9 21 -13 46 -10 75 -69 185 -141 263
-36 39 -65 69 -65 66 0 -3 -21 8 -47 24 -27 16 -58 32 -70 36 -13 3 -23 11
-23 16 0 6 -4 8 -8 5 -4 -3 -26 -1 -48 4 -53 11 -153 19 -184 14z m120 -33 c0
-4 11 -6 25 -3 14 2 25 0 25 -4 0 -5 12 -10 27 -11 15 0 29 -6 31 -12 2 -6 8
-9 13 -5 17 10 114 -51 174 -111 60 -60 132 -176 120 -195 -3 -6 -1 -10 5 -10
7 0 10 -6 7 -14 -3 -8 -1 -16 5 -18 27 -9 17 -298 -11 -298 -4 0 -7 -9 -8 -21
-3 -32 -52 -109 -106 -167 -55 -57 -135 -115 -148 -106 -5 3 -9 1 -9 -4 0 -12
-59 -34 -71 -26 -5 3 -9 0 -9 -7 0 -6 -8 -9 -20 -6 -11 3 -20 2 -20 -2 0 -3
-45 -6 -100 -6 -55 0 -100 3 -100 6 0 4 -9 5 -20 2 -11 -3 -20 0 -20 6 0 5 -7
8 -15 5 -8 -4 -15 -1 -15 6 0 6 -4 8 -10 5 -12 -7 -90 32 -90 46 0 6 -4 8 -9
5 -27 -17 -209 198 -197 230 3 7 0 14 -5 16 -25 8 -55 268 -31 268 4 0 7 16 8
35 1 55 67 176 132 243 61 61 164 128 182 117 5 -3 10 -1 10 5 0 7 7 10 15 6
8 -3 15 -1 15 5 0 6 7 9 15 5 8 -3 15 0 15 5 0 7 11 9 25 7 14 -3 25 -1 25 3
0 5 32 9 70 9 39 0 70 -4 70 -9z"/>
<path d="M2348 2059 c-16 -11 -28 -17 -28 -13 0 4 -6 1 -12 -8 -7 -9 -47 -45
-88 -80 -42 -34 -77 -66 -78 -70 -1 -4 -20 -35 -42 -69 -22 -34 -42 -70 -45
-80 -4 -10 -10 -19 -14 -19 -8 0 -7 1 -18 -137 -4 -57 -5 -104 -1 -105 4 -2 9
-14 10 -28 2 -13 10 -33 18 -44 30 -40 98 -105 104 -99 3 4 6 2 6 -3 0 -5 14
-10 32 -11 17 -1 34 -6 37 -10 8 -11 111 -10 111 1 0 4 11 6 25 4 13 -3 26 -2
27 3 2 4 12 9 23 11 11 1 47 30 80 62 49 48 61 66 63 95 1 20 7 38 12 39 13 5
13 59 1 64 -5 2 -11 19 -13 38 -1 19 -5 37 -8 40 -3 3 -17 24 -32 47 -15 23
-52 69 -82 103 -31 34 -60 79 -66 99 -13 48 -13 121 1 121 6 0 8 9 4 20 -4 12
-1 27 5 35 18 21 0 18 -32 -6z m157 -432 c42 -42 54 -96 31 -132 -9 -14 -21
-23 -26 -20 -6 4 -10 1 -10 -4 0 -15 -41 -13 -61 2 -39 30 -53 112 -23 141 8
9 12 16 7 16 -11 1 28 30 40 30 5 0 24 -15 42 -33z"/>
<path d="M820 1103 c-123 -19 -276 -116 -346 -220 -231 -339 -40 -797 357
-857 24 -4 54 -12 67 -18 17 -9 28 -8 46 2 14 7 36 10 50 8 14 -3 23 -1 20 3
-3 5 4 9 15 9 34 0 148 47 199 82 153 105 233 260 233 453 0 158 -48 278 -153
385 -68 68 -189 134 -277 150 -52 10 -160 11 -211 3z m213 -28 c180 -38 336
-188 394 -377 9 -30 16 -88 16 -133 0 -237 -173 -455 -404 -510 -261 -61 -524
86 -615 344 -33 93 -33 239 0 332 90 256 345 400 609 344z"/>
<path d="M890 950 c55 -24 77 -69 48 -99 -11 -10 1 -12 62 -6 74 7 76 6 108
-23 35 -33 39 -48 17 -76 -15 -19 -15 -19 -40 4 l-26 24 17 -39 c9 -22 30 -51
46 -65 25 -21 31 -33 31 -68 0 -23 -6 -48 -13 -57 -18 -22 -49 -18 -59 7 l-8
22 -14 -24 c-7 -14 -23 -46 -36 -73 -25 -53 -47 -67 -70 -44 -20 19 -12 43 32
92 20 22 43 53 51 68 15 28 15 28 -8 15 -16 -9 -65 -13 -158 -13 -120 0 -139
-2 -177 -22 -61 -33 -87 -75 -91 -148 -3 -48 0 -71 16 -102 41 -80 152 -149
256 -160 75 -8 113 2 177 42 l54 35 -40 -6 c-33 -5 -44 -2 -59 15 -19 21 -19
22 5 47 22 24 27 25 99 18 60 -5 83 -3 107 9 25 14 63 56 63 71 0 2 -23 -5
-50 -17 -46 -19 -51 -20 -66 -5 -23 23 -12 44 35 68 46 23 83 80 102 153 10
41 9 57 -6 105 -9 31 -28 71 -41 87 l-24 30 12 -31 c6 -17 8 -39 5 -48 -12
-31 -41 -13 -60 39 -10 28 -29 64 -43 82 -35 47 -138 94 -215 99 -52 4 -59 2
-39 -6z"/>
<path d="M715 893 c-28 -7 -43 -23 -22 -23 10 0 20 -6 23 -14 7 -17 71 -19 77
-2 11 28 -33 50 -78 39z"/>
<path d="M905 771 l-40 -6 28 -28 c21 -22 35 -28 60 -25 28 3 32 6 32 33 0 33
-11 37 -80 26z"/>
</g>
</svg>
